<?xml version="1.0" standalone="no"?>
<!DOCTYPE svg PUBLIC "-//W3C//DTD SVG 20010904//EN"
 "http://www.w3.org/TR/2001/REC-SVG-20010904/DTD/svg10.dtd">
<svg version="1.0" xmlns="http://www.w3.org/2000/svg"
 width="1300.000000pt" height="1300.000000pt" viewBox="0 0 1300.000000 1300.000000"
 preserveAspectRatio="xMidYMid meet">
<metadata>
Created by potrace 1.11, written by Peter Selinger 2001-2013
</metadata>
<g transform="translate(0.000000,1300.000000) scale(0.100000,-0.100000)"
fill="#000000" stroke="none">
<path d="M9955 12104 c-188 -45 -388 -240 -554 -538 -33 -60 -69 -118 -80
-130 -12 -12 -21 -34 -21 -48 0 -15 -4 -38 -10 -52 -6 -18 -6 -34 2 -51 10
-22 7 -32 -26 -80 -22 -31 -35 -59 -30 -66 4 -7 3 -9 -4 -5 -6 4 -63 -69 -139
-179 -70 -102 -153 -221 -183 -265 -123 -177 -319 -464 -562 -824 -826 -1224
-1155 -1717 -1301 -1950 -27 -45 -69 -110 -92 -146 -23 -36 -102 -159 -175
-275 -242 -381 -329 -514 -719 -1100 -213 -319 -422 -636 -465 -705 -44 -69
-92 -145 -108 -169 -37 -59 -36 -72 5 -35 l32 29 -34 -38 c-34 -36 -48 -47
-36 -27 3 6 4 10 2 10 -2 0 -31 -44 -63 -97 -32 -54 -66 -104 -76 -111 -21
-15 -41 -85 -33 -112 8 -25 -16 -200 -64 -465 -44 -249 -69 -418 -111 -785
-16 -141 -34 -270 -40 -287 -16 -44 7 -95 50 -113 28 -12 52 -9 218 23 103 20
211 39 239 42 56 7 133 -2 133 -15 0 -16 -150 -70 -287 -104 -77 -19 -207 -44
-289 -55 -82 -12 -189 -28 -239 -36 -49 -8 -128 -20 -175 -25 -120 -16 -203
-36 -258 -64 -67 -34 -93 -66 -99 -120 -10 -84 59 -162 212 -239 203 -102 427
-149 935 -197 243 -22 368 -39 375 -50 7 -11 -114 -46 -265 -75 -74 -15 -189
-40 -255 -55 -154 -36 -457 -92 -705 -130 -212 -32 -1011 -128 -1295 -156 -27
-3 -185 -18 -350 -35 -165 -16 -426 -41 -580 -55 -154 -14 -300 -27 -325 -29
-25 -2 -205 -18 -400 -35 -195 -17 -391 -35 -435 -40 -44 -5 -177 -16 -295
-25 -345 -24 -426 -52 -482 -164 -33 -64 -34 -93 -9 -166 47 -132 167 -220
446 -324 469 -177 992 -281 1760 -352 141 -13 522 -17 1050 -11 233 3 488 -8
502 -22 2 -1 -54 -17 -124 -35 -216 -54 -354 -141 -356 -224 -1 -43 11 -59 77
-96 75 -44 211 -79 365 -96 75 -8 303 -38 506 -65 411 -55 837 -103 1050 -120
210 -16 657 -30 953 -30 249 0 263 1 282 20 27 27 27 93 0 120 -16 16 -33 20
-82 20 -145 0 -787 21 -953 30 -381 22 -587 44 -1445 155 -377 49 -473 64
-483 74 -10 10 52 32 174 61 261 61 399 138 399 223 0 39 -44 67 -145 92 -235
60 -227 59 -920 60 -686 1 -797 6 -1225 56 -482 55 -940 157 -1290 286 -253
93 -408 202 -385 272 10 32 57 43 220 52 88 6 239 18 335 29 96 11 303 31 460
45 157 14 292 29 300 32 8 3 31 5 50 4 77 -4 922 75 1595 150 519 58 641 72
880 105 384 52 778 122 1005 179 30 8 107 23 171 34 136 24 281 69 338 106 91
57 121 155 71 228 -48 70 -144 93 -510 121 -173 14 -420 46 -580 76 -144 27
-405 131 -417 166 -5 16 117 40 374 74 708 94 981 204 960 388 -4 34 -14 53
-43 83 -55 56 -114 72 -259 67 l-115 -4 30 19 c26 16 29 22 18 35 -11 13 -11
14 7 2 18 -11 32 -7 105 30 440 221 720 401 913 588 56 54 68 70 65 93 -2 20
6 38 28 61 76 81 167 219 254 383 95 181 279 479 409 665 44 63 45 70 14 104
l-28 31 32 -29 32 -29 187 284 c164 249 526 804 624 958 19 30 63 97 97 150
34 53 87 137 119 186 32 50 94 146 139 215 45 69 129 197 186 285 137 209 141
216 324 520 86 143 198 319 250 390 52 72 109 151 127 177 18 25 72 97 119
160 113 149 228 320 344 513 26 44 65 107 85 140 20 33 70 114 110 180 41 66
98 157 127 203 47 72 52 86 41 100 -11 15 -11 15 3 4 14 -10 23 -2 64 60 27
40 74 108 107 150 63 84 73 105 31 67 l-28 -24 24 27 c13 15 29 26 35 25 6 -1
10 4 8 11 -1 8 1 11 6 8 13 -8 28 6 81 74 253 329 331 467 354 628 19 133 -29
295 -135 459 -118 180 -389 410 -554 469 -48 17 -233 29 -279 18z m234 -125
c138 -48 363 -229 487 -394 48 -64 104 -172 119 -233 32 -120 12 -271 -47
-372 -80 -135 -189 -289 -269 -378 l-47 -51 -5 37 c-4 20 -26 69 -51 109 -175
283 -524 570 -858 702 -32 13 -58 28 -58 35 0 20 110 198 182 293 84 112 172
193 256 235 105 52 176 56 291 17z m-609 -729 c124 -65 121 -62 79 -107 -62
-67 -185 -243 -405 -579 -178 -272 -408 -657 -729 -1219 -406 -714 -551 -964
-630 -1090 -17 -27 -45 -72 -62 -100 -107 -177 -309 -485 -551 -840 -59 -87
-68 -104 -41 -80 19 16 9 3 -22 -30 -30 -33 -95 -118 -143 -190 -83 -123 -275
-403 -423 -618 -37 -54 -75 -109 -83 -121 -134 -198 -633 -888 -800 -1107
l-66 -86 -34 13 c-48 17 -115 17 -174 -1 -27 -8 -60 -15 -73 -15 -58 0 -15
104 160 382 129 205 152 244 152 255 0 6 4 15 9 20 5 4 6 3 2 -4 -4 -7 -5 -13
-1 -13 3 0 9 8 13 18 7 17 329 501 508 764 52 76 94 142 94 147 0 5 4 11 8 13
9 3 111 157 347 523 31 48 208 327 284 448 20 31 54 85 76 120 22 34 85 132
139 217 106 164 498 756 743 1118 514 762 654 969 748 1107 178 260 383 557
511 743 48 68 82 127 78 134 -4 6 -3 8 3 5 6 -4 36 30 67 76 33 49 64 84 73
84 10 0 26 12 37 26 11 15 22 27 24 27 2 0 39 -18 82 -40z m-69 -387 c13 -16
12 -17 -3 -4 -17 13 -22 21 -14 21 2 0 10 -8 17 -17z m732 -165 c19 -29 50
-80 69 -113 31 -53 38 -60 65 -60 l31 0 -36 -50 c-19 -27 -43 -59 -52 -70 -27
-31 -190 -273 -197 -292 -5 -12 -3 -14 8 -8 12 8 12 6 0 -8 -16 -20 -26 -23
-15 -4 5 8 3 8 -9 -2 -9 -7 -15 -17 -12 -21 3 -4 -2 -13 -10 -20 -8 -7 -31
-40 -51 -74 -20 -33 -47 -77 -59 -96 -12 -19 -87 -141 -165 -270 -172 -282
-280 -444 -409 -608 -182 -232 -296 -402 -499 -742 -84 -140 -183 -301 -220
-357 -109 -166 -371 -570 -437 -673 -34 -52 -89 -138 -123 -190 -84 -131 -179
-278 -248 -385 -32 -49 -128 -196 -213 -325 -346 -527 -381 -582 -375 -592 4
-6 2 -8 -3 -5 -10 6 -92 -114 -266 -388 -38 -60 -77 -121 -86 -135 -10 -14
-60 -104 -112 -200 -115 -212 -185 -318 -265 -402 -66 -68 -61 -66 -264 -124
-47 -13 -88 -24 -91 -24 -3 0 -9 43 -12 96 l-7 96 37 67 c61 108 157 241 312
429 264 321 299 367 420 557 46 72 94 146 106 165 13 19 100 159 195 310 95
151 191 304 214 340 24 36 116 180 205 320 89 140 209 327 266 415 57 88 159
247 227 353 68 106 140 218 160 250 21 31 45 70 54 86 14 25 40 67 170 266 12
19 67 107 121 195 54 88 116 187 136 220 191 304 513 832 682 1115 133 224
318 519 392 628 24 35 43 67 43 72 0 4 3 10 8 12 4 2 34 39 67 83 68 93 183
215 200 215 7 0 28 -24 48 -52z m-342 -225 c13 -16 12 -17 -3 -4 -17 13 -22
21 -14 21 2 0 10 -8 17 -17z m509 -96 c0 -2 -17 -19 -37 -38 l-38 -34 34 38
c33 34 41 42 41 34z m-120 -121 c0 -2 -8 -10 -17 -17 -16 -13 -17 -12 -4 4 13
16 21 21 21 13z m-79 -93 c11 -13 11 -15 1 -9 -8 5 -22 1 -34 -11 l-22 -18 20
27 c10 15 20 28 20 28 1 0 8 -8 15 -17z m-2811 -2777 c0 -2 -8 -10 -17 -17
-16 -13 -17 -12 -4 4 13 16 21 21 21 13z m-1074 -688 l29 -33 -32 29 c-31 28
-38 36 -30 36 2 0 16 -15 33 -32z m739 -738 c10 -11 16 -20 13 -20 -3 0 -13 9
-23 20 -10 11 -16 20 -13 20 3 0 13 -9 23 -20z m-1345 -254 c0 -2 -8 -10 -17
-17 -16 -13 -17 -12 -4 4 13 16 21 21 21 13z m-50 -50 c0 -2 -8 -10 -17 -17
-16 -13 -17 -12 -4 4 13 16 21 21 21 13z m-40 -39 c0 -2 -15 -16 -32 -33 l-33
-29 29 33 c28 30 36 37 36 29z m-2 -624 c-2 -5 -10 -20 -17 -35 -20 -39 -8
-61 29 -56 17 3 30 0 30 -5 0 -4 9 -69 20 -143 30 -193 48 -227 118 -227 57 0
75 9 164 79 53 42 85 61 91 55 6 -6 12 -70 15 -143 2 -73 9 -141 14 -150 13
-27 116 -24 219 6 46 14 85 23 87 22 6 -6 -227 -175 -313 -228 -144 -87 -483
-268 -502 -268 -5 0 -23 23 -42 51 -66 96 -151 149 -242 149 l-52 0 7 63 c14
129 49 350 89 572 l42 230 60 7 c33 5 76 12 95 17 44 11 93 13 88 4z"/>
<path d="M10063 11783 c-16 -6 -17 -49 -2 -59 6 -4 31 -8 55 -10 63 -4 99 -25
213 -124 110 -96 151 -123 175 -114 36 14 28 57 -15 80 -16 8 -57 40 -91 72
-96 89 -159 130 -224 147 -59 15 -89 18 -111 8z"/>
</g>
</svg>
